name pl04_filtered_grf.mot
datacolumns 37
datarows 5
range 1.883500 1.885500
endheader
time	1_ground_force_vx	1_ground_force_vy	1_ground_force_vz	1_ground_force_px	1_ground_force_py	1_ground_force_pz	1_ground_torque_x	1_ground_torque_y	1_ground_torque_z	2_ground_force_vx	2_ground_force_vy	2_ground_force_vz	2_ground_force_px	2_ground_force_py	2_ground_force_pz	2_ground_torque_x	2_ground_torque_y	2_ground_torque_z	3_ground_force_vx	3_ground_force_vy	3_ground_force_vz	3_ground_force_px	3_ground_force_py	3_ground_force_pz	3_ground_torque_x	3_ground_torque_y	3_ground_torque_z	4_ground_force_vx	4_ground_force_vy	4_ground_force_vz	4_ground_force_px	4_ground_force_py	4_ground_force_pz	4_ground_torque_x	4_ground_torque_y	4_ground_torque_z
            1.883500	          -15.512695	          354.944387	           11.105685	            0.127544	            0.000000	            0.252623	           -0.305327	            6.986152	            0.218586	           26.399408	          373.951664	           -4.286182	           -0.136097	            0.000000	            0.259865	           -0.048399	           -0.685573	            0.007858	           22.409278	            0.868157	            0.558068	            0.375238	            1.311251	            1.913117	           -0.100931	           -0.003910	           -0.002514	          -18.401258	           -0.451949	            1.087854	           -0.265528	            1.310086	            1.923515	            0.007107	            0.000175	           -0.000420
            1.884000	          -15.527173	          354.944802	           11.022666	            0.127544	            0.000000	            0.252613	           -0.305751	            6.989334	            0.217051	           26.438328	          373.707357	           -4.338203	           -0.136108	            0.000000	            0.259881	           -0.048386	           -0.683940	            0.007940	           22.403255	            0.869921	            0.566683	            0.375240	            1.311250	            1.913115	           -0.101375	           -0.003936	           -0.002564	          -18.398457	           -0.467363	            1.103371	           -0.265528	            1.310088	            1.923519	            0.006928	            0.000176	           -0.000415
            1.884500	          -15.540148	          354.945053	           10.941172	            0.127546	            0.000000	            0.252606	           -0.306145	            6.992510	            0.215544	           26.476610	          373.465626	           -4.389793	           -0.136118	            0.000000	            0.259898	           -0.048373	           -0.682322	            0.008020	           22.397453	            0.872261	            0.575614	            0.375242	            1.311249	            1.913113	           -0.101833	           -0.003966	           -0.002617	          -18.395537	           -0.481386	            1.118173	           -0.265529	            1.310090	            1.923522	            0.006769	            0.000177	           -0.000411
            1.885000	          -15.551600	          354.944727	           10.861275	            0.127548	            0.000000	            0.252600	           -0.306510	            6.995680	            0.214067	           26.514179	          373.226449	           -4.441041	           -0.136127	            0.000000	            0.259914	           -0.048360	           -0.680735	            0.008100	           22.391970	            0.875168	            0.584699	            0.375244	            1.311248	            1.913111	           -0.102301	           -0.003998	           -0.002671	          -18.392486	           -0.493926	            1.132153	           -0.265529	            1.310093	            1.923526	            0.006632	            0.000178	           -0.000408
            1.885500	          -15.561509	          354.943387	           10.783030	            0.127551	            0.000000	            0.252595	           -0.306845	            6.998846	            0.212622	           26.550961	          372.989789	           -4.492050	           -0.136135	            0.000000	            0.259930	           -0.048348	           -0.679196	            0.008180	           22.386906	            0.878627	            0.593586	            0.375247	            1.311247	            1.913108	           -0.102781	           -0.004034	           -0.002725	          -18.389293	           -0.504910	            1.145289	           -0.265529	            1.310095	            1.923530	            0.006517	            0.000179	           -0.000406
